<?xml version="1.0" encoding="UTF-8" standalone="no"?>
<svg
   xmlns:dc="http://purl.org/dc/elements/1.1/"
   xmlns:cc="http://creativecommons.org/ns#"
   xmlns:rdf="http://www.w3.org/1999/02/22-rdf-syntax-ns#"
   xmlns:svg="http://www.w3.org/2000/svg"
   xmlns="http://www.w3.org/2000/svg"
   xmlns:sodipodi="http://sodipodi.sourceforge.net/DTD/sodipodi-0.dtd"
   xmlns:inkscape="http://www.inkscape.org/namespaces/inkscape"
   version="1.1"
   id="Capa_1"
   x="0px"
   y="0px"
   width="910px"
   height="910px"
   viewBox="0 0 910 910"
   style="enable-background:new 0 0 910 910;"
   xml:space="preserve"
   sodipodi:docname="hospital-bed-svgrepo-com.svg"
   inkscape:version="1.0.2 (e86c8708, 2021-01-15)"><metadata
   id="metadata99"><rdf:RDF><cc:Work
       rdf:about=""><dc:format>image/svg+xml</dc:format><dc:type
         rdf:resource="http://purl.org/dc/dcmitype/StillImage" /><dc:title></dc:title></cc:Work></rdf:RDF></metadata><defs
   id="defs97" /><sodipodi:namedview
   pagecolor="#ffffff"
   bordercolor="#666666"
   borderopacity="1"
   objecttolerance="10"
   gridtolerance="10"
   guidetolerance="10"
   inkscape:pageopacity="0"
   inkscape:pageshadow="2"
   inkscape:window-width="1920"
   inkscape:window-height="943"
   id="namedview95"
   showgrid="false"
   inkscape:zoom="0.79230769"
   inkscape:cx="455"
   inkscape:cy="303.54369"
   inkscape:window-x="1680"
   inkscape:window-y="25"
   inkscape:window-maximized="1"
   inkscape:current-layer="Capa_1" />
<g
   id="g62">
	<g
   id="g60">
		<path
   d="M789.1,449.9H879V369c0-16.8-13.7-30.5-30.5-30.5H342.1c1.601,3.3,3.101,6.6,4.601,10c10.2,24.2,15.399,49.9,15.399,76.4    c0,8.399-0.5,16.8-1.6,25H789.1z"
   id="path54" />
		<path
   d="M165.9,263.7c-3.4,0-6.7,0.1-10,0.3v185.8H267h58.1c1.301-8.2,1.9-16.5,1.9-25c0-31.8-9.2-61.399-25.1-86.3    C273.4,293.5,223.1,263.7,165.9,263.7z"
   id="path56" />
		<path
   d="M30,731.5h60.9c16.6,0,30-13.4,30-30v-95.7h668.2v95.7c0,16.6,13.4,30,30,30H880c16.6,0,30-13.4,30-30V514.9    c0-16.601-13.4-30-30-30h-90.9H120.9V270.1v-61.6c0-16.6-13.4-30-30-30H30c-16.6,0-30,13.4-30,30v111.7v38.5V491v38.5v172    C0,718,13.4,731.5,30,731.5z"
   id="path58" />
	</g>
</g>
<g
   id="g64">
</g>
<g
   id="g66">
</g>
<g
   id="g68">
</g>
<g
   id="g70">
</g>
<g
   id="g72">
</g>
<g
   id="g74">
</g>
<g
   id="g76">
</g>
<g
   id="g78">
</g>
<g
   id="g80">
</g>
<g
   id="g82">
</g>
<g
   id="g84">
</g>
<g
   id="g86">
</g>
<g
   id="g88">
</g>
<g
   id="g90">
</g>
<g
   id="g92">
</g>
</svg>
